Coordinates
version=1
nRows=10
nColumns=46
inDegrees=yes

Units are S.I. units (second, meters, Newtons, ...)
Angles are in degrees.

endheader
time	pelvis_tilt	pelvis_list	pelvis_rotation	pelvis_tx	pelvis_ty	pelvis_tz	bb_angle	bb_tx	bb_ty	bb_tz	hip_flexion_r	hip_adduction_r	hip_rotation_r	knee_angle_r	knee_angle_r_beta	ankle_angle_r	subtalar_angle_r	mtp_angle_r	crank_angle_r	hip_flexion_l	hip_adduction_l	hip_rotation_l	knee_angle_l	knee_angle_l_beta	ankle_angle_l	subtalar_angle_l	mtp_angle_l	crank_angle_l	lumbar_extension	lumbar_bending	lumbar_rotation	arm_flex_r	arm_add_r	arm_rot_r	elbow_flex_r	pro_sup_r	wrist_flex_r	wrist_dev_r	arm_flex_l	arm_add_l	arm_rot_l	elbow_flex_l	pro_sup_l	wrist_flex_l	wrist_dev_l
      2.50500000	    -30.20273819	      4.20957468	      5.21633655	      0.26891935	      1.04677671	     -0.18065145	      0.00000000	      0.50000000	      0.00000000	      0.25000000	     58.56829441	     -8.12605067	      2.29411940	     46.06042442	      0.80390606	     -4.51062691	    -15.19265060	      0.00000000	      0.00000000	     62.67474603	     -3.26839823	      3.71996192	     90.42757422	      1.57825890	     -1.89067304	     -2.10125823	      0.00000000	      0.00000000	    -39.83111520	      3.54997385	     -4.50513313	     45.36251665	    -12.01876702	     22.44140245	     75.00710359	     52.28269379	      0.00000000	      0.00000000	     54.79262075	    -27.08149764	     35.01533275	     67.42006033	     50.04260337	      0.00000000	      0.00000000
      2.51000000	    -29.97926206	      4.41485318	      5.59269674	      0.26915390	      1.04421394	     -0.18059684	      0.00000000	      0.50000000	      0.00000000	      0.25000000	     57.33248971	     -8.54470953	      1.95386247	     44.77400593	      0.78145382	     -5.63129646	    -15.32710692	      0.00000000	      0.00000000	     63.85316111	     -2.98080380	      3.96802905	     92.72210140	      1.61830596	     -0.86700160	     -1.44692957	      0.00000000	      0.00000000	    -39.61661618	      3.16438254	     -4.15814724	     44.03882150	    -12.11896935	     20.70836986	     75.76248733	     52.16324368	      0.00000000	      0.00000000	     55.99260186	    -26.37040439	     37.10651410	     66.20239923	     50.14780894	      0.00000000	      0.00000000
      2.51500000	    -29.79265736	      4.78765632	      5.98611012	      0.26950542	      1.04191554	     -0.18075604	      0.00000000	      0.50000000	      0.00000000	      0.25000000	     56.07484769	     -9.12940079	      1.70562836	     43.43843405	      0.75814370	     -6.52919786	    -15.02016747	      0.00000000	      0.00000000	     65.02573274	     -2.56154481	      3.97377474	     94.85013086	      1.65544708	     -0.23078204	     -1.24768076	      0.00000000	      0.00000000	    -39.39672469	      2.73356471	     -4.52987783	     43.51950531	    -12.15162837	     20.57747249	     75.66649008	     52.13629878	      0.00000000	      0.00000000	     56.15571508	    -26.18367470	     37.30992487	     66.20547223	     50.17258371	      0.00000000	      0.00000000
      2.52000000	    -29.66076134	      4.88567474	      6.17113881	      0.27020193	      1.03935911	     -0.18069012	      0.00000000	      0.50000000	      0.00000000	      0.25000000	     54.79699892	     -9.31188513	      1.32246060	     42.01398877	      0.73328244	     -7.68864606	    -15.47275064	      0.00000000	      0.00000000	     66.34143761	     -2.57813145	      4.18795651	     97.06482627	      1.69410081	      0.70566102	     -0.12659044	      0.00000000	      0.00000000	    -39.10879961	      2.17753836	     -3.24077989	     41.19906697	    -12.58658541	     17.00769953	     77.55270218	     52.06011306	      0.00000000	      0.00000000	     58.32550832	    -24.51008893	     41.23130614	     63.53710886	     50.20764310	      0.00000000	      0.00000000
      2.52500000	    -29.44870662	      5.28157318	      6.51517580	      0.27024026	      1.03752444	     -0.18052621	      0.00000000	      0.50000000	      0.00000000	      0.25000000	     53.47670380	     -9.84391377	      1.05110481	     40.66917004	      0.70981092	     -8.47872910	    -15.15633687	      0.00000000	      0.00000000	     67.52162045	     -2.22086898	      4.11790933	     98.94717919	      1.72695406	      1.12652217	      0.02099526	      0.00000000	      0.00000000	    -39.00561430	      1.63135462	     -3.62216605	     40.79699045	    -12.61835564	     16.94642363	     77.47377079	     52.03299494	      0.00000000	      0.00000000	     58.60767560	    -24.29970134	     41.36364293	     63.55554348	     50.21925898	      0.00000000	      0.00000000
      2.53000000	    -29.25520895	      5.39563978	      6.83557384	      0.27080073	      1.03547512	     -0.18040714	      0.00000000	      0.50000000	      0.00000000	      0.25000000	     52.03704832	    -10.15168193	      0.43734508	     39.19094994	      0.68401111	     -9.62104121	    -15.53181929	      0.00000000	      0.00000000	     68.81903808	     -2.08220175	      4.36462831	    100.86860482	      1.76048927	      1.65778167	      0.83261627	      0.00000000	      0.00000000	    -38.86565293	      1.07795049	     -2.39611844	     38.66670055	    -13.40798011	     14.04571838	     79.25975121	     52.01292175	      0.00000000	      0.00000000	     61.00880794	    -22.46361164	     45.67903145	     60.50499811	     50.25617139	      0.00000000	      0.00000000
      2.53500000	    -29.13711746	      5.68861132	      7.12757586	      0.27124120	      1.03378165	     -0.18037830	      0.00000000	      0.50000000	      0.00000000	      0.25000000	     50.68316516	    -10.61325097	     -0.04111841	     37.74588320	      0.65878994	    -10.38822334	    -15.14516418	      0.00000000	      0.00000000	     70.11150579	     -1.82417074	      4.31675449	    102.56545375	      1.79010487	      1.80029676	      1.03629197	      0.00000000	      0.00000000	    -38.68641925	      0.56259799	     -2.69884821	     38.20938964	    -13.48310395	     13.91751128	     79.13266767	     51.96545927	      0.00000000	      0.00000000	     61.13158774	    -22.21730957	     45.82977656	     60.50775158	     50.26744469	      0.00000000	      0.00000000
      2.54000000	    -29.01611665	      5.91529259	      7.42777356	      0.27201572	      1.03220197	     -0.18042691	      0.00000000	      0.50000000	      0.00000000	      0.25000000	     49.27530904	    -11.06824084	     -0.72017137	     36.29145241	      0.63340533	    -11.12428277	    -14.88449097	      0.00000000	      0.00000000	     71.42053607	     -1.64360736	      4.28037986	    104.18077607	      1.81829756	      2.10356336	      1.12774807	      0.00000000	      0.00000000	    -38.50509316	      0.11847361	     -2.90723573	     37.74358131	    -13.55626794	     13.64531292	     78.94851182	     51.90005635	      0.00000000	      0.00000000	     61.28428750	    -21.93600263	     46.14036990	     60.40641957	     50.28109259	      0.00000000	      0.00000000
      2.54500000	    -28.92505223	      6.14859868	      7.70239093	      0.27265776	      1.03089189	     -0.18040192	      0.00000000	      0.50000000	      0.00000000	      0.25000000	     47.91515930	    -11.51678545	     -1.42466335	     34.89303776	      0.60899839	    -11.83505305	    -14.37210995	      0.00000000	      0.00000000	     72.77330790	     -1.47829313	      4.23101654	    105.64401767	      1.84383594	      1.99504784	      1.40781314	      0.00000000	      0.00000000	    -38.35771226	     -0.34667044	     -3.08941968	     37.29880254	    -13.58865893	     13.26130815	     78.78297051	     51.80156569	      0.00000000	      0.00000000	     61.50217243	    -21.63223843	     46.42199772	     60.27611954	     50.26642517	      0.00000000	      0.00000000
      2.55000000	    -28.69933101	      6.28959519	      8.00866087	      0.27338601	      1.02985739	     -0.18041106	      0.00000000	      0.50000000	      0.00000000	      0.25000000	     46.39716677	    -11.92654442	     -2.33798845	     33.56152545	      0.58575912	    -12.60670457	    -13.87599410	      0.00000000	      0.00000000	     74.00859137	     -1.31277603	      4.25235121	    107.00952518	      1.86766855	      1.76588290	      1.61129487	      0.00000000	      0.00000000	    -38.41352767	     -1.02953780	     -1.46073396	     34.72467764	    -14.44561959	      9.33658484	     81.03584411	     51.81011417	      0.00000000	      0.00000000	     64.52419755	    -18.95473092	     51.80749848	     55.85881255	     50.23946857	      0.00000000	      0.00000000
